<svg xmlns="http://www.w3.org/2000/svg" viewBox="0 0 32 32">
  <rect width="32" height="32" rx="8" fill="#0f172a"/>
  <rect width="32" height="32" rx="8" fill="url(#g)"/>
  <defs>
    <linearGradient id="g" x1="0" y1="0" x2="32" y2="32" gradientUnits="userSpaceOnUse">
      <stop offset="0%" stop-color="#6366f1" stop-opacity="0.15"/>
      <stop offset="100%" stop-color="#4f46e5" stop-opacity="0.05"/>
    </linearGradient>
  </defs>
  <!-- Rocket body -->
  <path d="M16 5 C16 5 11 10 11 17 L15 17 L15 22 L17 22 L17 17 L21 17 C21 10 16 5 16 5 Z" fill="#6366f1"/>
  <!-- Rocket window -->
  <circle cx="16" cy="14" r="2" fill="#0f172a" opacity="0.6"/>
  <circle cx="16" cy="14" r="1.2" fill="#a5b4fc"/>
  <!-- Left fin -->
  <path d="M11 17 L8.5 20.5 L11 19.5 Z" fill="#4f46e5"/>
  <!-- Right fin -->
  <path d="M21 17 L23.5 20.5 L21 19.5 Z" fill="#4f46e5"/>
  <!-- Flame -->
  <ellipse cx="16" cy="23.5" rx="2" ry="2.5" fill="#f97316" opacity="0.9"/>
  <ellipse cx="16" cy="24" rx="1.2" ry="1.5" fill="#fbbf24"/>
</svg>
